<svg xmlns="http://www.w3.org/2000/svg" width="30" height="30" viewBox="0 0 36 36" fill="none">
	<rect width="36" height="36" rx="6" fill="black" />
	<path
		d="M18.3333 8.66675C19.571 8.66675 20.758 9.15841 21.6332 10.0336C22.5083 10.9088 23 12.0957 23 13.3334C23 14.5711 22.5083 15.7581 21.6332 16.6332C20.758 17.5084 19.571 18.0001 18.3333 18.0001C17.0957 18.0001 15.9087 17.5084 15.0335 16.6332C14.1583 15.7581 13.6667 14.5711 13.6667 13.3334C13.6667 12.0957 14.1583 10.9088 15.0335 10.0336C15.9087 9.15841 17.0957 8.66675 18.3333 8.66675ZM18.3333 19.1667C21.4483 19.1667 27.6667 20.7184 27.6667 23.8334V27.3334H9V23.8334C9 20.7184 15.2183 19.1667 18.3333 19.1667Z"
		fill="white" />
</svg>