<svg xmlns="http://www.w3.org/2000/svg" width="28" height="29" viewBox="0 0 28 29" fill="none">
    <g clip-path="url(#clip0_503_3850)">
        <path
            d="M23.6135 0C23.0856 0 22.6245 0.357199 22.4922 0.868129L21.346 5.30882H1.15747C0.79405 5.30882 0.450981 5.48007 0.232818 5.77057C0.0140904 6.06108 -0.0554278 6.43806 0.0451757 6.78735L3.37018 18.324C3.51317 18.8196 3.96702 19.161 4.48247 19.161H17.7717L17.271 21.1007H4.58364V23.1428H17.9554C18.4833 23.1428 18.9445 22.7856 19.0768 22.2741L24.298 2.04203H28V0H23.6135ZM19.3085 13.2056L18.2985 17.1196H15.7478V13.2056H19.3085ZM20.8192 7.35141L19.8352 11.1636H15.7472V7.35141H20.8187H20.8192ZM13.7058 13.2056V17.1196H9.34931V13.2056H13.7058ZM13.7058 7.35141V11.1636H9.34931V7.35141H13.7058ZM7.63396 7.35141V11.1636H3.43122L2.33249 7.35141H7.6334H7.63396ZM7.63396 13.2056V17.1196H5.1477L4.01958 13.2056H7.6334H7.63396Z"
            fill="white" />
        <path
            d="M6.53318 24.6812C5.3898 24.6812 4.46289 25.6081 4.46289 26.752C4.46289 27.8959 5.3898 28.8229 6.53318 28.8229C7.67655 28.8229 8.60346 27.8959 8.60346 26.752C8.60346 25.6081 7.67712 24.6812 6.53318 24.6812Z"
            fill="white" />
        <path
            d="M16.4687 24.7965C15.3248 24.7965 14.3984 25.724 14.3984 26.8668C14.3984 28.0096 15.3248 28.9376 16.4687 28.9376C17.6127 28.9376 18.539 28.0107 18.539 26.8668C18.539 25.7229 17.6121 24.7965 16.4687 24.7965Z"
            fill="white" />
    </g>
    <defs>
        <clipPath id="clip0_503_3850">
            <rect width="28" height="28.9376" fill="white" />
        </clipPath>
    </defs>
</svg>