<svg version="1.1" id="レイヤー_1" xmlns="http://www.w3.org/2000/svg" x="0" y="0" viewBox="0 0 433 433" xml:space="preserve"><style>.st1{fill:#3879d9}</style><path fill="none" d="M0 0h433v433H0z"/><path class="st1" d="M216.5 405h-.9c-.2 0-.5-.1-.9-.2l-.9-.3c-.2-.1-.4-.1-.6-.2L69 340.2c-2.6-1.2-4.3-3.8-4.3-6.7V156.9c0-.7.1-1.3.3-1.9 0-.1.1-.1.1-.2l.2-.4c.1-.4.3-.8.5-1.2.1-.1.2-.3.3-.4l.2-.2c.2-.3.5-.6.8-.9.2-.2.4-.3.6-.5l.4-.3.6-.3c.2-.1.4-.2.6-.4l38.8-17.2c2.5 4.3 5.4 8.4 8.6 12.1L90 156.9l126.5 56.2L343 156.9l-22.7-10.1c3.4-3.7 6.5-7.7 9.1-12l34.3 15.2c.2.1.4.3.7.4l.6.3c.2.1.3.3.5.4s.4.3.6.5c.3.3.5.5.7.8l.2.2c.1.1.2.2.3.4.2.4.4.8.5 1.2.1.2.1.4.2.5l.1.2c.2.6.3 1.2.3 1.9v176.7c0 2.9-1.7 5.5-4.3 6.7l-144.3 64.1-.4.1-.2.1c-.2.1-.6.2-.9.2s-.6.1-.9.2-.5.1-.9.1zm7.3-179.1v160.6l62.2-27.6V198.2l-62.2 27.7zm-80.2 131.5l65.6 29.1V225.9l-65.6-29.1v160.6zm157-165.7v160.6l53.1-23.6V168.1l-53.1 23.6zM79.3 328.8l49.7 22.1V190.2l-49.7-22.1v160.7z"/><path class="st1" d="M222.4 171.8c-.7 0-1.4-.1-2.1-.3l-1-.3-1 .3c-.7.2-1.4.3-2.1.3-.3 0-.6 0-.9-.1-10.2-1.8-20.3-4.4-30.2-7.6-22.8-7.6-39.6-17.1-51.3-28.9-7.5-7.6-16.5-20.3-16.4-37.8 0-8.5 2.1-17.5 6.2-26.8 3.3-7.4 6.8-12.7 11-16.6 3.9-3.8 9.2-6.1 14.7-6.3h.2c5.4 0 10.7 2.1 16.2 6.2 5 4 9.4 8.6 13.1 13.8 7.2 9.6 14.5 22.3 22.3 38.9 4.8 10.3 9.6 21.7 14.4 33.9l3.7 9.7 3.7-9.7c.8-2 1.6-4.1 2.5-6.4 8.6-21.5 17.1-39.3 25.2-53 5.4-8.9 12.8-20.1 22.1-27.3 5.5-4.1 10.7-6.2 16.1-6.2h.2c5.5.2 10.7 2.4 14.6 6.3 4.2 3.9 7.7 9.2 11 16.6 4.1 9.2 6.2 18.2 6.2 26.7.1 17.6-8.9 30.3-16.4 37.9-8.4 8.5-19.4 15.8-33.8 22.2-15.2 6.6-31.1 11.4-47.4 14.3h-.2c-.1.2-.3.2-.6.2zm66.5-109.4c-1 0-3.3.4-6.7 2.8-3.6 2.8-6.8 6-9.5 9.7-7.7 9.7-15 23.3-19.7 33.1-5.6 11.5-11.3 24.8-16.9 39.5l-2.9 7.5 7.7-2.2c2.3-.7 5-1.4 7.9-2.4 9.2-3 32.1-11.4 45.4-25.3 8.3-8.6 12.1-17.3 12.2-27.6 0-6.6-1.6-13.4-4.9-20.8-3.2-7.2-6.1-10.5-7.6-11.8-1.8-1.5-2.9-2.1-4.3-2.3h-.5l-.2-.2zm-140 0c-1.4.2-2.5.8-4.2 2.2-2.6 2.3-5.3 6.5-7.6 11.9-3.3 7.5-4.9 14.3-4.9 20.8.1 10 3.7 18.5 11.5 26.9 8.2 8.8 19.7 15.1 27.9 18.9 8.4 3.8 17.2 7 26.1 9.5l7.7 2.2-2.9-7.5c-.9-2.4-1.9-5-3-7.7-5.7-14.2-14.4-34.6-24.2-50.8-6.2-10.6-13.1-19.2-18.4-23.2-2.6-2-5.3-3.2-7.2-3.2h-.8z"/></svg>