<svg xmlns="http://www.w3.org/2000/svg" viewBox="0 0 126 126">
    <g data-name="レイヤー 2">
        <g data-name="レイヤー 1">
            <circle cx="63" cy="63" r="58.5" fill="#BDF738" stroke="#fff" stroke-miterlimit="10"
                stroke-width="9" />
            <path
                d="M55.3 76.88q-1.47 0-1.47-1.56c.12-1 .24-1.93.37-2.85a12.68 12.68 0 01.64-2.67 19 19 0 013.22-5.7 18.31 18.31 0 012-2.2 24 24 0 001.75-1.75c.49-.43 1.12-.93 1.88-1.52s1.64-1.21 2.62-1.88 1.9-1.38 2.58-1.93 1.22-1 1.65-1.38a12.46 12.46 0 002.67-3.13 8.07 8.07 0 001.29-4.23q0-7.26-12-7.26a57.8 57.8 0 00-9.05.74 77.07 77.07 0 00-9.89 2.29 1.42 1.42 0 01-1.42-.18 1.64 1.64 0 01-.6-1.38V32a1.23 1.23 0 011-1.29 94.26 94.26 0 0121.88-2.57q11.51 0 17.66 4.41a13.82 13.82 0 016.32 11.88 20.53 20.53 0 01-.83 6.07 16.46 16.46 0 01-2.85 4.87l-1.88 1.88c-.59.59-1.12 1.09-1.61 1.52a19.14 19.14 0 01-1.89 1.43c-.76.52-1.58 1.08-2.43 1.7-1.23.79-2.26 1.51-3.08 2.16s-1.52 1.21-2.07 1.7A7.69 7.69 0 0070 67.6c-.52.73-1.08 1.59-1.7 2.57a13.2 13.2 0 00-1.83 5.33q-.2 1.38-1.38 1.38zm-2.11 9.2a1.22 1.22 0 011.38-1.38h11A1.22 1.22 0 0167 86.08v10.39a1.22 1.22 0 01-1.38 1.37h-11a1.22 1.22 0 01-1.38-1.37z"
                fill="black" />
        </g>
    </g>
</svg>