<svg xmlns="http://www.w3.org/2000/svg" viewBox="0 0 356.92 52.51"><defs><style>.cls-1{fill:#e9538a;}.cls-2{fill:#0075be;}.cls-3{fill:#caa846;}</style></defs><g id="レイヤー_2" data-name="レイヤー 2"><g id="レイヤー_1-2" data-name="レイヤー 1"><path class="cls-1" d="M4.72,18.21a6.19,6.19,0,0,1,2-4.06,6,6,0,0,1,4-1.25H25.5c2.18,0,4.83.14,6.18,2.86,1.1,2.14.75,4.59.35,6.86a16.25,16.25,0,0,1-2.58,7.05A7.32,7.32,0,0,1,23,32.88H19l0,.22,9.92,11H21.46L13,34a3.77,3.77,0,0,1-1-2.63l.12-.71a2.76,2.76,0,0,1,3-2.14H21a4.15,4.15,0,0,0,3.45-1.38,11.37,11.37,0,0,0,1.47-4.28c.43-2.46.16-3.7-.35-4.33-.78-.93-2.2-.93-3.14-.93H12.9a2.28,2.28,0,0,0-1.65.49,2.32,2.32,0,0,0-.93,1.74L6,44.12H.15Z"/><path class="cls-1" d="M50.69,20.48a5.83,5.83,0,0,1,4.58,1.83c.8,1,1.22,2.94.75,5.58L53.86,40.15a5.08,5.08,0,0,1-1.47,3,5.08,5.08,0,0,1-3.42.94H37.69c-1.29,0-2.94,0-4.08-1.16-1.62-1.65-1.22-4.69-.91-6.42.36-2.1,1-4.2,3-5.76a7,7,0,0,1,4.56-1.38H50.54l.29-1.65a3,3,0,0,0-.28-2.23,2.56,2.56,0,0,0-2.36-1H36.56l.7-4ZM41.14,33.42a2.8,2.8,0,0,0-2.06.8,4.55,4.55,0,0,0-1,2.54,3.81,3.81,0,0,0,.25,2.63,2.12,2.12,0,0,0,1.57.71h7.27a2.17,2.17,0,0,0,1.2-.26,1.3,1.3,0,0,0,.53-1l1-5.43Z"/><path class="cls-1" d="M60.26,24.1a4.26,4.26,0,0,1,1.2-2.55,5.22,5.22,0,0,1,3.8-1.07H73.6c2.45,0,4.69.23,6.26,1.92,1,1.12,1.81,2.9,1.24,6.15L78.35,44.12H73.14l2.46-14a6.31,6.31,0,0,0-.24-4.19c-.58-1-1.57-1.42-3.49-1.42H66.56a1.32,1.32,0,0,0-.94.26,1.68,1.68,0,0,0-.44,1L61.94,44.12H56.73Z"/><path class="cls-1" d="M81.91,44.12,87.42,12.9h5.22L87.13,44.12Zm16.55,0-6.64-8.65a4.49,4.49,0,0,1-1-3.57,6.25,6.25,0,0,1,2.28-3.57l8.51-7.85h6.07L97.15,30a3,3,0,0,0-1.06,1.69,3,3,0,0,0,.74,2.18l7.87,10.22Z"/><path class="cls-1" d="M110,20.48h5.22l-4.17,23.64h-5.22Z"/><path class="cls-1" d="M118.17,24.1a4.26,4.26,0,0,1,1.2-2.55,5.22,5.22,0,0,1,3.8-1.07h8.34c2.45,0,4.69.23,6.26,1.92,1,1.12,1.81,2.9,1.24,6.15l-2.75,15.57h-5.21l2.46-14a6.31,6.31,0,0,0-.24-4.19c-.58-1-1.57-1.42-3.49-1.42h-5.31a1.32,1.32,0,0,0-.94.26,1.68,1.68,0,0,0-.44,1l-3.24,18.37h-5.21Z"/><path class="cls-1" d="M140.18,47.91h9.95a8,8,0,0,0,4.55-1.07,5.61,5.61,0,0,0,1.87-2.72h-8.39c-2.45,0-5.26-.23-6.6-3-.9-2-.95-4.95-.21-9.14.65-3.7,1.61-6.6,4.06-8.87,2.66-2.45,5.36-2.59,7.72-2.59h7.63a5.18,5.18,0,0,1,3.67.94,3.7,3.7,0,0,1,.77,3.43l-2.92,16.59c-.54,3-1.37,5.75-3.26,7.62-2.64,2.59-6.7,2.86-8.4,2.86H139.47Zm19.54-21.54a1.38,1.38,0,0,0-.4-1.52A2,2,0,0,0,158,24.5h-4.46A6.47,6.47,0,0,0,149.22,26c-1.71,1.6-2.35,5.26-2.55,6.37-.74,4.24-.21,5.76.22,6.38.92,1.34,2.69,1.38,4.21,1.38h6.2Z"/><path class="cls-2" d="M232.31,40.73c-1.31,2.36-2.36,3.74-5.12,3.74-3,0-3.39-1.78-3.8-3.74L219.08,19.9c-.07-.35-.31-1-.58-1-.49,0-.63.8-.65.94l-4.15,24.3h-5.89l4.85-27.47c.71-4.06,4.86-4.1,5.76-4.1,3.61,0,4.31,1.83,4.77,4l4.4,20.82c.15.67.38,1.16.65,1.16s.66-.49,1-1.16L241,16.56c2-3.52,4-4,6.19-4,2.9,0,4.82,1.25,4.32,4.1l-4.85,27.47h-5.88l4.46-24.3c.15-.85-.19-.94-.37-.94s-.74.67-.94,1Z"/><path class="cls-2" d="M269.85,20.48a5.82,5.82,0,0,1,4.58,1.83c.8,1,1.22,2.94.76,5.58L273,40.15a5.1,5.1,0,0,1-1.48,3,5.07,5.07,0,0,1-3.42.94H256.85c-1.29,0-2.94,0-4.07-1.16-1.63-1.65-1.23-4.69-.92-6.42.37-2.1,1-4.2,3-5.76a7,7,0,0,1,4.57-1.38H269.7l.29-1.65a3,3,0,0,0-.27-2.23,2.58,2.58,0,0,0-2.36-1H255.72l.71-4ZM260.3,33.42a2.81,2.81,0,0,0-2.06.8,4.55,4.55,0,0,0-1,2.54,3.86,3.86,0,0,0,.25,2.63,2.14,2.14,0,0,0,1.57.71h7.27a2.22,2.22,0,0,0,1.21-.26,1.37,1.37,0,0,0,.53-1l1-5.43Z"/><path class="cls-2" d="M276.29,40.1h13.28a2.54,2.54,0,0,0,1.86-.67,2.5,2.5,0,0,0,.71-1.47,1.93,1.93,0,0,0-.36-1.78c-.3-.31-.87-.62-4-1.52l-4.33-1.24c-2.38-.67-4-1.57-4.67-2.86a6.23,6.23,0,0,1-.41-4,8.06,8.06,0,0,1,1.83-4c1.72-1.91,4-2.05,6-2.05h13.33l-.71,4H286.3a3.17,3.17,0,0,0-1.9.44,2.26,2.26,0,0,0-1,1.7,1.75,1.75,0,0,0,.44,1.83,9,9,0,0,0,2.73,1.2l4.83,1.43c2.67.8,4.47,1.42,5.41,2.67a5.61,5.61,0,0,1,.67,4.33,7.45,7.45,0,0,1-2.85,5,7,7,0,0,1-4,1H275.58Z"/><path class="cls-2" d="M309.55,44.12c-3.16,0-4.76-.54-6-1.74s-1.84-3-1.31-6l2.1-11.9h-3.26l.71-4H305l1.34-7.58h5.22l-1.34,7.58h6.6l-.71,4h-6.6L307.86,34c-.29,1.61-.81,3.84.48,5.09,1,1,2.94,1,3.88,1h1.29l-.7,4Z"/><path class="cls-2" d="M322.88,44.12c-2.41,0-5.22-.23-6.7-3-1.16-2.23-.72-5.49-.17-8.61.78-4.41,1.57-7.67,4.55-9.9s7-2.23,9.22-2.23c2.77,0,5.6.14,7.54,1.52,2.46,1.74,2.52,4.68,2,7.67a5.75,5.75,0,0,1-1.74,3.57,4,4,0,0,1-2.7.89H321.13a17.26,17.26,0,0,0-.26,3.25c.22,2.55,2.36,2.81,4.28,2.81H336.7l-.71,4ZM332.68,30c1,0,1.29-.76,1.4-1.39a3.36,3.36,0,0,0-1-3.16c-1.12-1-2.8-1.07-4.27-1.07A7,7,0,0,0,323.63,26c-1.28,1.2-1.47,2.5-1.79,4.06Z"/><path class="cls-2" d="M342.28,29.4c.46-2.58,1.35-5.13,3.66-6.87a12.21,12.21,0,0,1,7.46-2.05h3.52l-.71,4H354a6.4,6.4,0,0,0-4.75,1.65,8.39,8.39,0,0,0-2,4.63L344.9,44.12h-5.21Z"/><path class="cls-3" d="M203,15.74a3.85,3.85,0,0,0-3.7-3.19,3.26,3.26,0,0,0-2.74,1.36,3.72,3.72,0,0,0-.19.34c.1-1,.13-1.6.13-1.6H176.43s0,.47.09,1.29v0a3.25,3.25,0,0,0-2.74-1.36,3.84,3.84,0,0,0-3.7,3.19,5.61,5.61,0,0,0-.17,1.35c.09,4.08,4.15,6.69,6.45,7.94A2.5,2.5,0,0,1,178,27.2a1.13,1.13,0,0,1-.18.7,1,1,0,0,0,.08,1.34,1,1,0,0,0,.63.24.94.94,0,0,0,.72-.33,3,3,0,0,0,.67-1.95v0a8.71,8.71,0,0,0,3.63,3,.92.92,0,0,0,.72,1.5h.21a2.59,2.59,0,0,0-.52,1.56v.32a2.39,2.39,0,0,0,.14.79c-2.1.41-3.56,1.33-3.56,2.4v.32h12.15v-.32c0-1.07-1.46-2-3.56-2.4a2.66,2.66,0,0,0,.12-.79v-.31a2.6,2.6,0,0,0-.52-1.57h.05a.93.93,0,0,0,.92-.92.91.91,0,0,0-.21-.59A8.78,8.78,0,0,0,193.22,27v.26a3,3,0,0,0,.66,1.94,1,1,0,0,0,.72.33,1,1,0,0,0,.63-.23,1,1,0,0,0,.09-1.34h0a1.18,1.18,0,0,1-.19-.69c0-.64.31-1.48,1.62-2.18,2.3-1.23,6.36-3.85,6.46-7.93A5.66,5.66,0,0,0,203,15.74Zm-25.78,7.6c-2.14-1.07-5.54-3.7-5.43-6.25a3.33,3.33,0,0,1,.12-.88c.41-1.45,1.12-1.71,1.85-1.75a1.41,1.41,0,0,1,1.13.49,1.23,1.23,0,0,1,.21.7c0,.5-.17.63-.47.65h-.12a1,1,0,0,0-.28,1.88l.38,0a2.28,2.28,0,0,0,1.82-.82,2.55,2.55,0,0,0,.4-.7c.19,1.45.46,3.23.86,5.21a15.72,15.72,0,0,0,.58,2.14A5.29,5.29,0,0,0,177.23,23.34Zm18.61,0a4.92,4.92,0,0,0-1.25.87,17.27,17.27,0,0,0,.65-2.31c.42-2.14.71-4,.9-5.53a2.52,2.52,0,0,0,.5,1,2.34,2.34,0,0,0,2.16.8,1,1,0,0,0-.26-1.88h-.12c-.31,0-.43-.14-.48-.65a1.19,1.19,0,0,1,.22-.7,1.39,1.39,0,0,1,1.13-.49c.71,0,1.43.3,1.84,1.75a3.35,3.35,0,0,1,.12.89C201.38,19.64,198,22.27,195.84,23.34ZM181,37.82l-1.09,4.48H192.8l-1.09-4.48Zm-2.48,6.65h15.72V43.19H178.47Z"/><circle class="cls-3" cx="265.75" cy="13.08" r="3.63"/><circle class="cls-3" cx="285" cy="6.78" r="3.63"/><circle class="cls-3" cx="304.25" cy="3.63" r="3.63"/><circle class="cls-3" cx="342.74" cy="13.08" r="3.63"/><circle class="cls-3" cx="323.49" cy="6.78" r="3.63"/><path class="cls-3" d="M0,48.38s65.83,9.3,136.21,0"/><path class="cls-3" d="M108.21,10.67h.07l-.37,4.3H119.6l1.13-4.3h.08a.89.89,0,0,0,.85-.72.6.6,0,0,0-.6-.73.9.9,0,0,0-.85.73.63.63,0,0,0,.13.51l-3.11,2.64L115.1,8.83a1,1,0,0,0,.58-.68.59.59,0,0,0-.6-.72.89.89,0,0,0-.85.72.59.59,0,0,0,.34.68l-3.64,4.27-2.17-2.64a.87.87,0,0,0,.3-.51.6.6,0,0,0-.6-.73.91.91,0,0,0-.85.73A.59.59,0,0,0,108.21,10.67Z"/><polygon class="cls-3" points="107.82 15.98 107.67 17.66 118.88 17.66 119.32 15.98 107.82 15.98"/></g></g></svg>