<svg xmlns="http://www.w3.org/2000/svg" width="20" height="20" viewBox="0 0 15 17" fill="none">
    <g clip-path="url(#clip0_503_3802)">
        <path
            d="M1.62281 14.8142C1.62281 15.2534 1.67627 15.6606 1.79704 16.0009C1.96039 16.451 2.24154 16.775 2.66491 16.8687C2.75071 16.8849 2.83915 16.8955 2.93287 16.8955H12.0855C12.1095 16.8955 12.131 16.8955 12.1498 16.8928C13.023 16.8367 13.3793 15.9286 13.3793 14.8142L13.7463 5.92694H1.25586L1.62281 14.8142ZM9.99332 7.90886H11.7317V14.9132H9.99332V7.90886ZM6.63172 7.90886H8.3701V14.9132H6.63172V7.90886ZM3.27012 7.90886H5.01114V14.9132H3.27012V7.90886Z"
            fill="#9C9C9C" />
        <path
            d="M11.2177 2.94648C11.2203 2.87949 11.2256 2.8125 11.2256 2.74551V2.56072C11.2256 1.14902 10.0766 0 8.66486 0H6.33184C4.92014 0 3.77112 1.14902 3.77112 2.56072V2.74551C3.77112 2.8125 3.7764 2.87949 3.78201 2.94648H0V5.01155H15V2.94648H11.218H11.2177ZM9.61853 2.74551C9.61853 2.81514 9.61061 2.88213 9.59708 2.94648H5.39962C5.38609 2.88213 5.37817 2.81514 5.37817 2.74551V2.56072C5.37817 2.03571 5.80682 1.60705 6.33184 1.60705H8.66486C9.19252 1.60705 9.61853 2.03571 9.61853 2.56072V2.74551Z"
            fill="#9C9C9C" />
    </g>
    <defs>
        <clipPath id="clip0_503_3802">
            <rect width="15" height="16.8955" fill="white" />
        </clipPath>
    </defs>
</svg>