<svg xmlns="http://www.w3.org/2000/svg" viewBox="0 0 212.09 212.09"><defs><style>.cls-1{fill:#1da1f2;}.cls-2{fill:#fff;}.cls-3{fill:none;}</style></defs><title>アセット 42</title><g id="レイヤー_2" data-name="レイヤー 2"><g id="レイヤー_1-2" data-name="レイヤー 1"><rect class="cls-1" width="212.09" height="212.09" rx="13.54"/><path class="cls-2" d="M81.45,159.91c50,0,77.38-41.45,77.38-77.38,0-1.18,0-2.35-.08-3.52a55.06,55.06,0,0,0,13.57-14.08,53.86,53.86,0,0,1-15.62,4.28,27.23,27.23,0,0,0,12-15,54.38,54.38,0,0,1-17.27,6.6,27.21,27.21,0,0,0-47,18.6,26.91,26.91,0,0,0,.71,6.2A77.21,77.21,0,0,1,49,57.16a27.23,27.23,0,0,0,8.42,36.31,27.05,27.05,0,0,1-12.32-3.41v.35a27.2,27.2,0,0,0,21.82,26.66,27.38,27.38,0,0,1-7.17,1,27.78,27.78,0,0,1-5.12-.49A27.26,27.26,0,0,0,80,136.43a54.59,54.59,0,0,1-33.78,11.64,55.41,55.41,0,0,1-6.48-.38,77,77,0,0,0,41.68,12.22"/><rect class="cls-3" width="212.09" height="212.09"/></g></g></svg>