<svg xmlns="http://www.w3.org/2000/svg" viewBox="0 0 433 433"><path fill="none" d="M0 0h433v433H0z"/><path d="M339.3 3.8l-26.1 17.4c-3 1.8-5.9 3.3-8.7 4.6-7.1 3.4-13.7 5.5-18.7 6.1-8.6 1-21.2 4.4-33.5 9.1-5.7 2.2-11.4 4.7-16.8 7.5-4.6 2.3-8.9 5.2-12.9 8.7-8.4 8.2-15.2 15.1-20.9 21.1-4.2 4.4-7.5 8.1-10.2 11.4-3.1 3.7-5.2 6.6-6.5 9.6-2.3 5.7-2.6 13.2-2.7 18.4 0 3 .2 6.1.5 9.1.2 2.6.8 5.2 1.8 7.6v.1c.5 1 1.2 1.9 2.1 2.7l-26.1 26.1-18.3.1-49 54.3-.4 209.8 158.4 1.4 50.5-45.2-.2-221.1-42.4.2 10.3-10.3-4.2-4.2c3.4-.9 7.1-2.4 11.5-4.6 12.9-6.5 23.9-12.1 33-18.8 9-6.6 16.2-14.4 23.3-25.2 4.8-7.3 10.1-14.4 15.8-21L376.7 60 339.3 3.8zm-3.7 18.9L358 56.3l-3.9 2.6-22.9-33.3 4.4-2.9zm-14.8 71c-6 8.8-11.6 14.7-18.9 20.1-7.7 5.7-17.3 10.7-31.1 17.6-6 3-10.2 4.1-12.2 4.1h-.1c.1-1.1.5-2.1 1-3.1.7-1.4 1.6-2.7 2.8-3.7 6-5.4 11.5-11.4 16.4-17.9l2.1-2.8-1.1-3.4c-1.3-3.6-3.2-6.8-5.7-9.6-5.6-6.2-13.5-9.6-21.9-9.4-4.2 0-8.4.7-12.4 1.9-14 4.2-26.2 14.5-35.2 23.1-3 2.9-5.7 5.6-8 8l-.4.4v-1.7c-.1-5.5.8-11.1 1.6-13 1.3-2.2 2.8-4.3 4.5-6.3 8.2-9.8 23.7-25.2 30.1-31.3 2.9-2.6 6.2-4.7 9.7-6.4 13.8-7.3 35.4-14 45.5-15.1 7.5-.8 15.9-3.7 25.9-8.7 2.2-1.1 4.1-2.2 5.8-3.1l22.2 33.3c-7.1 7.9-13.6 16.3-19.4 25.2l-1.2 1.8zM114.4 213.1L148 176h16.3l23.5 23.5h34.6l2-2.1 21.5-21.4h33.8L246 213.1H114.4zm79-27.2l-18.2-18.2 45.3-45.3 29.9 29.9-33.6 33.7-23.4-.1zm58.3-65.8c-1.8 1.9-3.3 4.1-4.4 6.4-.4.8-.7 1.6-1 2.4l-19.4-19.4c6-4.4 11.6-7.3 16.6-8.8 2.8-.9 5.6-1.3 8.5-1.4 6.5.1 9.7 2.7 11.8 4.9.5.6 1 1.2 1.4 1.8-3.7 4.5-7.7 8.7-12 12.6l-1.5 1.4v.1zm-145.8 296V226.6h136.3V416H105.9v.1z" fill="#ccc"/></svg>